<svg width="220" height="220" viewBox="0 0 220 220" fill="none" xmlns="http://www.w3.org/2000/svg">
<circle cx="110" cy="110" r="107" stroke="black" stroke-width="6"/>
<path d="M156.75 55.8334H75.5C72.6269 55.8334 69.8714 56.9747 67.8397 59.0064C65.8081 61.038 64.6667 63.7935 64.6667 66.6667V82.9167H53.8334V93.75H64.6667V104.583H53.8334V115.417H64.6667V126.25H53.8334V137.083H64.6667V153.333C64.6667 156.207 65.8081 158.962 67.8397 160.994C69.8714 163.025 72.6269 164.167 75.5 164.167H156.75C158.187 164.167 159.564 163.596 160.58 162.58C161.596 161.564 162.167 160.187 162.167 158.75V61.25C162.167 59.8135 161.596 58.4357 160.58 57.4199C159.564 56.4041 158.187 55.8334 156.75 55.8334ZM113.417 72.078C122.343 72.078 129.667 79.3959 129.667 88.328C129.651 92.6334 127.934 96.7581 124.89 99.803C121.846 102.848 117.722 104.566 113.417 104.583C104.495 104.583 97.1667 97.2546 97.1667 88.328C97.1667 79.3959 104.495 72.078 113.417 72.078ZM145.917 142.5H80.9167V138.438C80.9167 126.418 95.5688 114.063 113.417 114.063C131.265 114.063 145.917 126.418 145.917 138.438V142.5Z" fill="black"/>
</svg>
