<svg width="40" height="39" viewBox="0 0 40 39" fill="none" xmlns="http://www.w3.org/2000/svg">
<path d="M26.6877 19.4954C26.6877 20.7294 26.3218 21.9356 25.6362 22.9616C24.9507 23.9875 23.9763 24.7872 22.8363 25.2594C21.6963 25.7316 20.4419 25.8551 19.2317 25.6144C18.0214 25.3737 16.9098 24.7795 16.0373 23.907C15.1648 23.0345 14.5706 21.9228 14.3298 20.7126C14.0891 19.5024 14.2127 18.2479 14.6849 17.1079C15.1571 15.9679 15.9567 14.9936 16.9827 14.308C18.0087 13.6225 19.2149 13.2566 20.4488 13.2566C22.1029 13.2585 23.6886 13.9164 24.8582 15.086C26.0278 16.2556 26.6857 17.8414 26.6877 19.4954ZM39.9452 10.917V28.0739C39.9419 30.9685 38.7906 33.7436 36.7438 35.7904C34.697 37.8372 31.9218 38.9885 29.0272 38.9919H11.8704C8.97577 38.9885 6.20065 37.8372 4.15385 35.7904C2.10704 33.7436 0.955695 30.9685 0.952393 28.0739V10.917C0.955695 8.0224 2.10704 5.24728 4.15385 3.20048C6.20065 1.15367 8.97577 0.00232591 11.8704 -0.000976562H29.0272C31.9218 0.00232591 34.697 1.15367 36.7438 3.20048C38.7906 5.24728 39.9419 8.0224 39.9452 10.917ZM29.8071 19.4954C29.8071 17.6445 29.2582 15.8352 28.2299 14.2963C27.2016 12.7573 25.7401 11.5578 24.0301 10.8495C22.3201 10.1412 20.4384 9.95588 18.6231 10.317C16.8078 10.6781 15.1403 11.5694 13.8315 12.8781C12.5227 14.1869 11.6314 15.8544 11.2703 17.6697C10.9093 19.4851 11.0946 21.3667 11.8029 23.0767C12.5112 24.7867 13.7107 26.2483 15.2496 27.2766C16.7886 28.3049 18.5979 28.8537 20.4488 28.8537C22.9299 28.8509 25.3086 27.8641 27.063 26.1097C28.8174 24.3552 29.8043 21.9766 29.8071 19.4954ZM32.9265 9.3573C32.9265 8.89458 32.7893 8.44225 32.5322 8.05751C32.2751 7.67277 31.9098 7.3729 31.4823 7.19582C31.0548 7.01874 30.5843 6.97241 30.1305 7.06269C29.6767 7.15296 29.2598 7.37578 28.9326 7.70298C28.6054 8.03017 28.3826 8.44704 28.2923 8.90087C28.2021 9.35471 28.2484 9.82512 28.4255 10.2526C28.6025 10.6801 28.9024 11.0455 29.2871 11.3026C29.6719 11.5597 30.1242 11.6969 30.5869 11.6969C31.2074 11.6969 31.8025 11.4504 32.2413 11.0116C32.68 10.5729 32.9265 9.97779 32.9265 9.3573Z" fill="black"/>
</svg>
