<svg width="222" height="54" viewBox="0 0 222 54" fill="none" xmlns="http://www.w3.org/2000/svg">
<path d="M96.136 30.912C97.1387 31.7227 97.64 32.7573 97.64 34.016C97.64 35.2747 97.2667 36.384 96.52 37.344C95.1973 39.0933 93.16 40.224 90.408 40.736L89.384 40.928C90.4507 44.64 92.6907 48.3093 96.104 51.936C95.784 52 95.2933 52.032 94.632 52.032L92.168 51.936C91.3147 51.936 90.408 51.104 89.448 49.44C88.5093 47.7547 87.7627 46.048 87.208 44.32C86.6533 42.5707 86.376 41.408 86.376 40.832C86.376 40.512 86.5253 40.3413 86.824 40.32C91.8373 39.7013 94.4187 37.7387 94.568 34.432C94.568 33.2587 94.216 32.352 93.512 31.712C92.8293 31.072 91.6987 30.7093 90.12 30.624C88.456 32.864 86.6107 36.448 84.584 41.376C82.5787 46.3893 81.576 49.696 81.576 51.296C81.576 51.616 81.6187 51.8507 81.704 52H77.576C78.1733 49.4187 79.432 45.8347 81.352 41.248C83.912 35.1467 85.5653 31.68 86.312 30.848C84.4987 30.8907 82.6533 31.264 80.776 31.968C78.92 32.6507 77.8427 33.472 77.544 34.432C77.5227 34.496 77.48 34.528 77.416 34.528C77.224 34.528 77.128 34.3893 77.128 34.112C77.128 34.0693 77.1493 33.9627 77.192 33.792C77.5973 32.6187 78.184 31.712 78.952 31.072C79.72 30.432 80.4667 30.0373 81.192 29.888C81.9387 29.7387 82.856 29.664 83.944 29.664H91.72C93.6827 29.664 95.1547 30.08 96.136 30.912ZM108.89 43.68C109.018 43.68 109.082 43.8933 109.082 44.32C109.082 44.7253 108.911 45.216 108.57 45.792C108.228 46.368 107.887 46.912 107.546 47.424C107.226 47.936 106.788 48.5333 106.234 49.216C105.679 49.8987 105.135 50.4427 104.602 50.848C103.258 51.8293 101.903 52.32 100.538 52.32C99.1935 52.32 98.1055 51.9787 97.2735 51.296C96.4415 50.592 96.0255 49.5253 96.0255 48.096C96.0255 45.92 96.8255 43.904 98.4255 42.048C100.026 40.192 101.892 39.264 104.026 39.264C104.986 39.264 105.754 39.52 106.33 40.032C106.906 40.5227 107.194 41.12 107.194 41.824C107.194 43.0187 106.628 43.9787 105.498 44.704C104.367 45.4293 103.034 45.792 101.498 45.792C100.602 45.792 99.9402 45.6747 99.5135 45.44C99.1082 46.528 98.9055 47.488 98.9055 48.32C98.9055 50.112 99.6628 51.008 101.178 51.008C102.074 51.008 102.991 50.6667 103.93 49.984C104.89 49.28 105.7 48.5013 106.362 47.648C107.044 46.7733 107.812 45.5253 108.666 43.904C108.751 43.7547 108.826 43.68 108.89 43.68ZM105.498 41.152C105.498 40.5333 105.199 40.224 104.602 40.224C103.77 40.224 102.842 40.736 101.818 41.76C100.794 42.784 100.282 43.616 100.282 44.256C100.282 44.6827 100.687 44.896 101.498 44.896C102.308 44.896 103.151 44.5013 104.026 43.712C104.922 42.9227 105.412 42.0693 105.498 41.152ZM120.646 39.2L122.246 39.232H122.566C121.862 39.808 120.998 41.2693 119.974 43.616C118.95 45.9413 118.438 47.6373 118.438 48.704C118.438 49.2587 118.63 49.536 119.014 49.536C120.252 49.536 121.83 47.712 123.75 44.064C123.836 43.9147 123.91 43.84 123.974 43.84C124.102 43.84 124.166 44.0427 124.166 44.448C124.166 44.832 124.06 45.2053 123.846 45.568C121.222 49.984 119.025 52.192 117.254 52.192C116.102 52.192 115.526 51.3067 115.526 49.536C115.526 48.2133 115.75 46.912 116.198 45.632C113.766 49.9413 111.516 52.096 109.446 52.096C108.017 52.096 107.302 51.1147 107.302 49.152C107.302 47.6587 107.622 46.144 108.262 44.608C108.924 43.072 109.862 41.7707 111.078 40.704C112.294 39.616 113.628 39.072 115.078 39.072C115.761 39.072 116.401 39.232 116.998 39.552C117.596 39.8507 117.99 40.3413 118.182 41.024C118.417 40.5333 118.78 40.1067 119.27 39.744C119.761 39.3813 120.22 39.2 120.646 39.2ZM117.99 41.312C117.777 40.6293 117.276 40.288 116.486 40.288C115.078 40.288 113.713 41.2693 112.39 43.232C111.068 45.1733 110.406 46.912 110.406 48.448C110.406 49.1093 110.662 49.44 111.174 49.44C111.729 49.44 112.38 49.0987 113.126 48.416C113.873 47.712 114.545 46.8907 115.142 45.952C116.465 43.8613 117.414 42.3147 117.99 41.312ZM135.419 43.808C135.547 43.808 135.611 44.0107 135.611 44.416C135.611 44.8213 135.43 45.3227 135.067 45.92C134.726 46.5173 134.449 46.976 134.235 47.296C134.043 47.5947 133.702 48.0853 133.211 48.768C132.721 49.4507 132.294 49.9413 131.931 50.24C131.569 50.5387 131.11 50.8907 130.555 51.296C129.617 51.9787 128.39 52.32 126.875 52.32C125.382 52.32 124.294 51.9467 123.611 51.2C122.95 50.432 122.619 49.44 122.619 48.224C122.619 45.984 123.409 43.936 124.987 42.08C126.587 40.2027 128.465 39.264 130.619 39.264C131.579 39.264 132.347 39.52 132.923 40.032C133.499 40.5227 133.787 41.12 133.787 41.824C133.787 42.5067 133.595 43.104 133.211 43.616C132.827 44.128 132.39 44.384 131.899 44.384C130.939 44.384 130.459 43.9893 130.459 43.2C130.459 42.944 130.726 42.6987 131.259 42.464C131.473 42.3787 131.665 42.2187 131.835 41.984C132.006 41.7493 132.091 41.44 132.091 41.056C132.091 40.5013 131.793 40.224 131.195 40.224C129.915 40.224 128.646 41.152 127.387 43.008C126.129 44.864 125.499 46.6667 125.499 48.416C125.499 50.144 126.257 51.008 127.771 51.008C129.883 51.008 131.942 49.376 133.947 46.112C134.353 45.472 134.683 44.928 134.939 44.48C135.217 44.032 135.377 43.808 135.419 43.808ZM144.072 33.664C143.027 34.3893 141.853 36.2453 140.552 39.232H143.784L143.816 39.264C143.816 39.3707 143.699 39.5627 143.464 39.84C143.229 40.096 143.027 40.224 142.856 40.224H140.104C138.419 44.4053 137.576 47.0933 137.576 48.288C137.576 49.0987 137.832 49.504 138.344 49.504C139.091 49.504 139.965 48.864 140.968 47.584C141.203 47.3067 141.512 46.8373 141.896 46.176C142.877 44.5973 143.389 43.808 143.432 43.808C143.56 43.808 143.624 43.9787 143.624 44.32C143.603 45.1307 142.717 46.7093 140.968 49.056C140.392 49.824 139.699 50.5387 138.888 51.2C138.077 51.8613 137.341 52.192 136.68 52.192C135.464 52.192 134.856 51.3387 134.856 49.632C134.856 48.2027 135.197 46.56 135.88 44.704V44.672C135.475 45.4187 135.123 45.9733 134.824 46.336C134.547 46.6987 134.387 46.88 134.344 46.88C134.259 46.88 134.216 46.752 134.216 46.496C134.216 46.2187 134.355 45.7813 134.632 45.184C134.931 44.5867 135.325 43.808 135.816 42.848C136.328 41.888 136.744 41.0133 137.064 40.224H134.92C134.856 40.224 134.824 40.1813 134.824 40.096C134.824 39.9893 134.899 39.8187 135.048 39.584C135.219 39.3493 135.347 39.232 135.432 39.232H137.864C139.4 35.5413 140.957 33.696 142.536 33.696C143.453 33.696 143.965 33.6853 144.072 33.664Z" fill="#FF8832"/>
<path d="M155.209 39.2L156.809 39.232H157.129C156.425 39.808 155.561 41.2693 154.537 43.616C153.513 45.9413 153.001 47.6373 153.001 48.704C153.001 49.2587 153.193 49.536 153.577 49.536C154.814 49.536 156.393 47.712 158.313 44.064C158.398 43.9147 158.473 43.84 158.537 43.84C158.665 43.84 158.729 44.0427 158.729 44.448C158.729 44.832 158.622 45.2053 158.409 45.568C155.785 49.984 153.587 52.192 151.817 52.192C150.665 52.192 150.089 51.3067 150.089 49.536C150.089 48.2133 150.313 46.912 150.761 45.632C148.329 49.9413 146.078 52.096 144.009 52.096C142.579 52.096 141.865 51.1147 141.865 49.152C141.865 47.6587 142.185 46.144 142.825 44.608C143.486 43.072 144.425 41.7707 145.641 40.704C146.857 39.616 148.19 39.072 149.641 39.072C150.323 39.072 150.963 39.232 151.561 39.552C152.158 39.8507 152.553 40.3413 152.745 41.024C152.979 40.5333 153.342 40.1067 153.833 39.744C154.323 39.3813 154.782 39.2 155.209 39.2ZM152.553 41.312C152.339 40.6293 151.838 40.288 151.049 40.288C149.641 40.288 148.275 41.2693 146.953 43.232C145.63 45.1733 144.969 46.912 144.969 48.448C144.969 49.1093 145.225 49.44 145.737 49.44C146.291 49.44 146.942 49.0987 147.689 48.416C148.435 47.712 149.107 46.8907 149.705 45.952C151.027 43.8613 151.977 42.3147 152.553 41.312ZM169.406 39.104L170.942 39.136C171.262 39.136 171.464 39.1253 171.55 39.104C170.952 39.5093 170.088 40.928 168.958 43.36C167.848 45.7707 167.294 47.5093 167.294 48.576C167.294 49.216 167.507 49.536 167.934 49.536C168.211 49.536 168.584 49.3547 169.054 48.992C169.544 48.6293 169.96 48.2347 170.302 47.808C170.643 47.36 171.006 46.816 171.39 46.176C171.795 45.536 172.136 44.9813 172.414 44.512C172.712 44.0427 172.883 43.808 172.926 43.808C173.054 43.808 173.118 44.0107 173.118 44.416C173.118 44.8213 173 45.2053 172.766 45.568C170.12 49.984 167.912 52.192 166.142 52.192C164.947 52.192 164.35 51.3067 164.35 49.536C164.35 48.9813 164.392 48.448 164.478 47.936C162.472 50.7733 160.563 52.192 158.75 52.192C158.216 52.192 157.779 51.968 157.438 51.52C157.118 51.072 156.958 50.4107 156.958 49.536C156.958 48.6613 157.267 47.2213 157.886 45.216C158.504 43.1893 159.262 41.5253 160.158 40.224C160.371 39.904 160.595 39.712 160.83 39.648C161.086 39.5627 161.555 39.52 162.238 39.52H163.774C163.24 40.2453 162.664 41.2267 162.046 42.464C160.638 45.3867 159.934 47.5307 159.934 48.896C159.934 49.7067 160.222 50.112 160.798 50.112C161.395 50.112 162.099 49.5467 162.91 48.416C163.72 47.2853 164.584 45.824 165.502 44.032C166.44 42.2187 166.984 41.1947 167.134 40.96C167.923 39.7227 168.68 39.104 169.406 39.104ZM180.197 39.136L181.829 39.168H182.149C181.829 39.4027 181.37 40.096 180.773 41.248C180.197 42.4 179.759 43.2747 179.461 43.872C179.183 44.448 178.863 45.2373 178.501 46.24C178.159 47.2213 177.989 48.0213 177.989 48.64C177.989 49.2587 178.202 49.568 178.629 49.568C178.906 49.5467 179.29 49.3547 179.781 48.992C180.293 48.608 180.709 48.2133 181.029 47.808C181.37 47.3813 181.733 46.848 182.117 46.208C182.522 45.5467 182.863 44.9813 183.141 44.512C183.439 44.0213 183.61 43.776 183.653 43.776C183.802 43.776 183.877 43.9787 183.877 44.384C183.877 44.768 183.77 45.1413 183.557 45.504C182.639 47.0187 181.882 48.1813 181.285 48.992C180.687 49.8027 179.962 50.5493 179.109 51.232C178.277 51.8933 177.519 52.224 176.837 52.224C175.621 52.224 175.013 51.328 175.013 49.536C175.013 48.32 175.247 46.944 175.717 45.408C176.186 43.872 176.879 42.3893 177.797 40.96C177.05 41.5573 176.303 41.856 175.557 41.856C175.322 41.856 175.077 41.8027 174.821 41.696C173.306 44.6827 172.485 46.176 172.357 46.176C172.25 46.176 172.197 46.0053 172.197 45.664C172.197 45.3013 172.325 44.8107 172.581 44.192C172.858 43.552 173.146 42.944 173.445 42.368C173.765 41.792 173.935 41.472 173.957 41.408C173.189 41.024 172.805 40.4053 172.805 39.552C172.805 39.1253 172.933 38.7413 173.189 38.4C173.466 38.0587 173.839 37.888 174.309 37.888C174.778 37.888 175.162 38.0373 175.461 38.336C175.418 38.464 175.397 38.656 175.397 38.912C175.397 39.488 175.599 39.9467 176.005 40.288C176.431 40.608 176.943 40.768 177.541 40.768C177.711 40.768 177.839 40.7573 177.925 40.736C178.671 39.6693 179.429 39.136 180.197 39.136ZM195.459 39.2L197.059 39.232H197.379C196.675 39.808 195.811 41.2693 194.787 43.616C193.763 45.9413 193.251 47.6373 193.251 48.704C193.251 49.2587 193.443 49.536 193.827 49.536C195.064 49.536 196.643 47.712 198.563 44.064C198.648 43.9147 198.723 43.84 198.787 43.84C198.915 43.84 198.979 44.0427 198.979 44.448C198.979 44.832 198.872 45.2053 198.659 45.568C196.035 49.984 193.837 52.192 192.067 52.192C190.915 52.192 190.339 51.3067 190.339 49.536C190.339 48.2133 190.563 46.912 191.011 45.632C188.579 49.9413 186.328 52.096 184.259 52.096C182.829 52.096 182.115 51.1147 182.115 49.152C182.115 47.6587 182.435 46.144 183.075 44.608C183.736 43.072 184.675 41.7707 185.891 40.704C187.107 39.616 188.44 39.072 189.891 39.072C190.573 39.072 191.213 39.232 191.811 39.552C192.408 39.8507 192.803 40.3413 192.995 41.024C193.229 40.5333 193.592 40.1067 194.083 39.744C194.573 39.3813 195.032 39.2 195.459 39.2ZM192.803 41.312C192.589 40.6293 192.088 40.288 191.299 40.288C189.891 40.288 188.525 41.2693 187.203 43.232C185.88 45.1733 185.219 46.912 185.219 48.448C185.219 49.1093 185.475 49.44 185.987 49.44C186.541 49.44 187.192 49.0987 187.939 48.416C188.685 47.712 189.357 46.8907 189.955 45.952C191.277 43.8613 192.227 42.3147 192.803 41.312ZM212.6 45.568C211.81 46.8907 211.085 48 210.424 48.896C209.784 49.7707 209.048 50.5387 208.216 51.2C207.384 51.8613 206.626 52.192 205.944 52.192C204.685 52.192 204.056 51.4987 204.056 50.112C204.056 48.7253 204.856 45.9413 206.456 41.76C206.541 41.568 206.584 41.3653 206.584 41.152C206.584 40.704 206.296 40.48 205.72 40.48C205.165 40.48 204.61 40.6613 204.056 41.024C203.522 41.3653 203.032 41.8667 202.584 42.528C202.136 43.168 201.73 43.8293 201.368 44.512C201.005 45.1733 200.664 45.9413 200.344 46.816C200.045 47.6907 199.8 48.4267 199.608 49.024C199.437 49.6 199.256 50.2293 199.064 50.912C198.893 51.5733 198.797 51.936 198.776 52H195.672C195.672 51.552 196.61 48.9813 198.488 44.288C199.256 42.0907 199.64 40.5547 199.64 39.68C199.64 39.4667 199.608 39.3067 199.544 39.2H200.888C201.634 39.2 202.114 39.2747 202.328 39.424C202.541 39.5733 202.648 39.776 202.648 40.032C202.648 40.288 202.53 40.8107 202.296 41.6C204.088 39.8933 205.89 39.04 207.704 39.04C208.92 39.04 209.528 39.5947 209.528 40.704C209.528 41.0667 209.474 41.4293 209.368 41.792C209.261 42.1547 208.994 42.88 208.568 43.968C207.629 46.3573 207.16 47.9573 207.16 48.768C207.16 49.28 207.352 49.536 207.736 49.536C208.013 49.536 208.397 49.344 208.888 48.96C209.4 48.576 209.816 48.1813 210.136 47.776C210.477 47.3493 210.84 46.8267 211.224 46.208C211.629 45.568 211.97 45.0133 212.248 44.544C212.525 44.0747 212.685 43.84 212.728 43.84C212.856 43.84 212.92 44.0427 212.92 44.448C212.92 44.832 212.813 45.2053 212.6 45.568ZM221.353 33.664C220.308 34.3893 219.135 36.2453 217.833 39.232H221.065L221.097 39.264C221.097 39.3707 220.98 39.5627 220.745 39.84C220.511 40.096 220.308 40.224 220.137 40.224H217.385C215.7 44.4053 214.857 47.0933 214.857 48.288C214.857 49.0987 215.113 49.504 215.625 49.504C216.372 49.504 217.247 48.864 218.249 47.584C218.484 47.3067 218.793 46.8373 219.177 46.176C220.159 44.5973 220.671 43.808 220.713 43.808C220.841 43.808 220.905 43.9787 220.905 44.32C220.884 45.1307 219.999 46.7093 218.249 49.056C217.673 49.824 216.98 50.5387 216.169 51.2C215.359 51.8613 214.623 52.192 213.961 52.192C212.745 52.192 212.137 51.3387 212.137 49.632C212.137 48.2027 212.479 46.56 213.161 44.704V44.672C212.756 45.4187 212.404 45.9733 212.105 46.336C211.828 46.6987 211.668 46.88 211.625 46.88C211.54 46.88 211.497 46.752 211.497 46.496C211.497 46.2187 211.636 45.7813 211.913 45.184C212.212 44.5867 212.607 43.808 213.097 42.848C213.609 41.888 214.025 41.0133 214.345 40.224H212.201C212.137 40.224 212.105 40.1813 212.105 40.096C212.105 39.9893 212.18 39.8187 212.329 39.584C212.5 39.3493 212.628 39.232 212.713 39.232H215.145C216.681 35.5413 218.239 33.696 219.817 33.696C220.735 33.696 221.247 33.6853 221.353 33.664Z" fill="black"/>
<path d="M30.5013 37.8474C17.3013 37.8474 6.30133 34.179 3.80133 29.3474C8.40133 41.9632 5.60133 53.6843 30.5013 53.6843C55.4013 53.6843 52.6013 41.9632 57.2013 29.3474C54.7013 34.179 43.7013 37.8474 30.5013 37.8474Z" fill="black"/>
<path d="M18.2013 16.5526C32.3013 13.0631 64.7013 18.3421 57.6013 30.3315C61.5013 34.2684 62.9013 38.4736 44.3013 38.2052C15.7013 44.2 -7.89865 31.7631 2.50135 22.3684C0.0013454 17.8052 5.50135 15.4789 18.2013 16.5526Z" fill="black"/>
<path d="M30.5013 37.3105C43.0013 37.3105 53.4013 33.821 55.8013 29.2579C56.0013 28.8105 56.1013 28.3631 56.3013 27.9157C56.3013 27.6473 56.4013 27.4684 56.4013 27.2C56.4013 21.6526 44.8013 17.1789 30.6013 17.1789C16.4013 17.1789 4.80133 21.6526 4.80133 27.2C4.80133 27.4684 4.80133 27.6473 4.90133 27.9157C5.00133 28.3631 5.20133 28.8105 5.40133 29.2579C7.60133 33.821 18.0013 37.3105 30.5013 37.3105Z" fill="black"/>
<path d="M30.5013 37.3105C43.0013 37.3105 53.4013 33.821 55.8013 29.2579C55.8013 29.0789 55.9013 28.9895 55.9013 28.8106C53.8013 24.0684 43.2013 20.4895 30.4013 20.4895C17.6013 20.4895 7.00134 24.0684 4.90134 28.8106C5.00134 28.9895 5.00134 29.079 5.00134 29.2579C7.60134 33.8211 18.0013 37.3105 30.5013 37.3105Z" fill="#FBBF67"/>
<path d="M34.0014 25.4106C29.0014 25.3211 22.9014 28.9 18.8014 28.6316C12.0014 28.1842 19.0014 31.1369 23.8014 31.1369C27.0014 31.1369 29.2014 28.5421 30.9014 27.4685C33.3014 26.1264 39.2014 25.5 34.0014 25.4106Z" fill="#D33B23"/>
<path d="M19.2014 22.4579C17.9014 19.2368 10.4014 24.5157 16.8014 25.6789C17.8014 25.8579 20.3014 25.321 19.2014 22.4579ZM33.7014 32.5684C32.1014 28.6315 22.8014 35.1631 30.8014 36.5052C32.0014 36.6842 35.1014 36.0579 33.7014 32.5684ZM35.4014 21.2947C33.9014 18.0736 24.6014 23.3526 32.5014 24.5157C33.6014 24.6052 36.7014 24.0684 35.4014 21.2947ZM50.7014 24.7842C50.1014 21.2947 38.2014 23.2631 46.4014 26.9315C47.6014 27.4684 51.2014 27.9157 50.7014 24.7842Z" fill="#FF8832"/>
<path d="M13.1013 27.9158C12.0013 26.5737 10.4013 24.7842 9.80133 25.679C8.90133 26.9316 8.60133 29.4369 9.30133 29.5263C14.3013 30.4211 13.9013 28.9895 13.1013 27.9158ZM40.6013 25.4105C38.8013 26.1263 37.7013 25.5895 36.9013 26.6632C35.0013 29.079 41.5013 29.8842 42.7013 28.4527C43.6013 27.4684 41.8013 24.9632 40.6013 25.4105ZM42.1013 31.4053C40.8013 30.8684 41.1013 32.6579 39.1013 31.2263C37.7013 30.2421 34.7013 32.7474 36.7013 34.4474C38.9013 36.3263 39.5013 34.5369 40.4013 34.7158C42.3013 34.9842 45.6013 32.7474 42.1013 31.4053ZM20.1013 31.9421C18.9013 30.8684 17.0013 33.9106 17.7013 34.7158C19.2013 36.5053 24.6013 36.1474 26.0013 34.8053C27.8013 33.1948 23.0013 34.4474 20.1013 31.9421Z" fill="#89664C"/>
<path d="M15.5013 31.0474C15.5013 31.0474 15.6013 32.1211 15.8013 32.5685C14.5013 32.1211 14.5013 30.0632 14.5013 30.0632C14.5013 30.0632 13.6013 30.5106 13.7013 31.3158C12.3013 30.2422 11.1013 30.779 11.1013 30.779C11.1013 30.779 12.9013 31.6737 13.2013 32.3C12.2013 32.3895 11.6013 32.6579 11.2013 33.3737C11.2013 33.3737 13.2013 32.479 14.7013 33.1053C14.1013 33.5527 14.4013 34.6264 14.4013 34.6264C16.8013 32.3895 18.3013 34.3579 19.4013 33.8211C18.5013 32.7474 17.2013 32.5685 17.2013 32.5685C16.7013 31.6737 15.5013 31.0474 15.5013 31.0474ZM26.3013 22.279C25.1013 22.1 23.9013 22.6369 23.9013 22.6369C23.9013 22.6369 25.0013 23.0843 25.5013 23.2632C24.4013 24.0685 22.4013 22.9948 22.4013 22.9948C22.4013 22.9948 22.4014 23.8895 23.2013 24.2474C21.5013 24.7843 21.3013 26.0369 21.3013 26.0369C21.3013 26.0369 23.1013 25.1422 23.8013 25.2316C23.3013 26.0369 23.3013 26.6632 23.9013 27.2895C23.9013 27.2895 24.1013 25.3211 25.5013 24.5158C25.6013 25.2316 26.8013 25.5 26.8013 25.5C25.9013 22.5474 28.6013 22.3685 28.6013 21.2948C27.2013 21.2948 26.3013 22.279 26.3013 22.279ZM49.6013 30.3316C50.1013 29.8843 52.2013 29.6158 52.2013 29.6158C52.2013 29.6158 51.3013 28.7211 49.5014 29.1685C49.9014 28.4527 49.3013 27.7369 49.3013 27.7369C49.3013 27.7369 48.4014 29.6158 47.0014 29.6158C47.4014 29.1685 47.9014 28.2737 47.9014 28.2737C47.9014 28.2737 46.5013 28.5422 45.7013 29.3474C45.7013 29.3474 44.4013 28.9895 43.2013 29.7053C43.9013 30.6 46.2014 29.2579 47.4014 32.1211C47.4014 32.1211 48.1013 31.2264 47.8013 30.6C49.4013 30.5106 50.9014 32.0316 50.9014 32.0316C50.9014 31.2264 50.5014 30.779 49.6013 30.3316Z" fill="#699635"/>
<path d="M31.3013 8.41053C27.6013 5.01053 30.1013 0 30.1013 0C30.1013 0 22.3013 6.62105 27.2013 11.1842C32.9013 16.4632 30.1013 19.6842 30.1013 19.6842C30.1013 19.6842 37.1013 13.7789 31.3013 8.41053ZM20.3013 11.4526C17.5013 9.03684 19.4013 5.36842 19.4013 5.36842C19.4013 5.36842 13.6013 10.2 17.3013 13.5105C21.6013 17.3579 19.4013 19.6842 19.4013 19.6842C19.4013 19.6842 24.6013 15.3895 20.3013 11.4526ZM42.3013 11.4526C39.5013 9.03684 41.4013 5.36842 41.4013 5.36842C41.4013 5.36842 35.6013 10.2 39.3013 13.5105C43.6013 17.3579 41.4013 19.6842 41.4013 19.6842C41.4013 19.6842 46.6013 15.3895 42.3013 11.4526Z" fill="#B6B6B6"/>
</svg>
