<svg width="70" height="70" viewBox="0 0 70 70" fill="none" xmlns="http://www.w3.org/2000/svg">
<path fill-rule="evenodd" clip-rule="evenodd" d="M34.9936 0C15.6676 0 0 15.6676 0 34.9936C0 54.3195 15.6676 69.9871 34.9936 69.9871C54.3195 69.9871 69.9871 54.3195 69.9871 34.9936C69.9871 15.6676 54.3195 0 34.9936 0ZM24.5178 42.0145C23.9178 42.594 23.1142 42.9147 22.2801 42.9074C21.446 42.9002 20.6481 42.5656 20.0583 41.9758C19.4684 41.386 19.1339 40.5881 19.1266 39.754C19.1194 38.9198 19.44 38.1163 20.0195 37.5163L32.7444 24.7913C33.341 24.195 34.15 23.8599 34.9936 23.8599C35.8371 23.8599 36.6461 24.195 37.2427 24.7913L49.9676 37.5163C50.5471 38.1163 50.8678 38.9198 50.8605 39.754C50.8533 40.5881 50.5187 41.386 49.9289 41.9758C49.339 42.5656 48.5411 42.9002 47.707 42.9074C46.8729 42.9147 46.0693 42.594 45.4694 42.0145L34.9936 31.5387L24.5178 42.0145Z" fill="black"/>
</svg>
