<svg width="105" height="104" viewBox="0 0 105 104" fill="none" xmlns="http://www.w3.org/2000/svg">
<path d="M29.25 16.25C27.3 16.25 26 18.2 26 19.5V35.75H19.5V19.5C19.5 17.55 18.2 16.25 16.25 16.25C14.3 16.25 13 18.2 13 19.5V35.75H6.5V19.5C6.5 17.55 5.2 16.25 3.25 16.25C1.3 16.25 0 18.2 0 19.5V40.95C0 46.8 4.55 51.35 9.75 52V97.5C9.75 101.4 12.35 104 16.25 104C20.15 104 22.75 101.4 22.75 97.5V52C27.95 51.35 32.5 46.8 32.5 40.95V19.5C32.5 18.2 31.2 16.25 29.25 16.25ZM42.25 19.5V58.5H48.75V97.5C48.75 101.4 51.35 104 55.25 104C59.15 104 61.75 101.4 61.75 97.5V0C50.7 0 42.25 8.45 42.25 19.5ZM87.75 13C78.65 13 71.5 22.75 71.5 34.45C70.85 42.25 74.75 49.4 81.25 53.95V97.5C81.25 101.4 83.85 104 87.75 104C91.65 104 94.25 101.4 94.25 97.5V53.95C100.75 49.4 104.65 42.25 104 34.45C104 22.75 96.85 13 87.75 13Z" fill="white"/>
</svg>
