<svg width="92" height="104" viewBox="0 0 92 104" fill="none" xmlns="http://www.w3.org/2000/svg">
<path d="M48.7885 1.37795C48.0207 0.694044 47.0283 0.316162 46 0.316162C44.9718 0.316162 43.9794 0.694044 43.2115 1.37795C39.218 4.91615 36.0334 9.27295 33.8743 14.152C31.7151 19.0311 30.6322 24.3179 30.699 29.653C30.7047 30.2114 30.8543 30.7591 31.1332 31.2429C31.4122 31.7268 31.8111 32.1306 32.2915 32.4155C36.5032 34.9069 40.3105 38.0259 43.582 41.665C43.8868 42.0043 44.2597 42.2758 44.6763 42.4616C45.0929 42.6474 45.5439 42.7434 46 42.7434C46.4562 42.7434 46.9072 42.6474 47.3238 42.4616C47.7404 42.2758 48.1133 42.0043 48.418 41.665C51.6887 38.0311 55.4936 34.9166 59.702 32.4285C60.1837 32.1444 60.5839 31.741 60.864 31.257C61.1442 30.7731 61.2947 30.2251 61.301 29.666C61.3689 24.3298 60.2864 19.0417 58.1272 14.1615C55.968 9.28122 52.7829 4.92337 48.7885 1.38446V1.37795ZM0.610542 66.352C0.559717 65.7861 0.621273 65.2158 0.791667 64.6739C0.962062 64.1319 1.23793 63.629 1.60341 63.194C1.96888 62.7591 2.41675 62.4007 2.92125 62.1395C3.42575 61.8783 3.97691 61.7194 4.54304 61.672C13.1973 60.9523 21.8585 62.9746 29.2993 67.4521C36.7401 71.9297 42.583 78.6354 46 86.619C49.4171 78.6354 55.26 71.9297 62.7008 67.4521C70.1416 62.9746 78.8028 60.9523 87.4571 61.672C89.8296 61.867 91.6105 63.96 91.3895 66.352C90.4553 76.6383 85.709 86.2037 78.0829 93.1696C70.4567 100.135 60.5017 103.999 50.173 104H47.144C46.7575 103.999 46.3727 103.947 46 103.844C45.6274 103.947 45.2426 103.999 44.856 104H41.827C31.4984 103.999 21.5434 100.135 13.9172 93.1696C6.29107 86.2037 1.5448 76.6383 0.610542 66.352ZM46 57.369C42.583 49.3854 36.7401 42.6797 29.2993 38.2021C21.8585 33.7246 13.1973 31.7023 4.54304 32.422C3.97691 32.4694 3.42575 32.6283 2.92125 32.8895C2.41675 33.1507 1.96888 33.5091 1.60341 33.944C1.23793 34.379 0.962062 34.8819 0.791667 35.4239C0.621273 35.9658 0.559717 36.5361 0.610542 37.102C1.12295 42.8049 2.81634 48.3388 5.58304 53.352C5.86163 53.8557 6.26901 54.2764 6.76352 54.5711C7.25803 54.8657 7.82193 55.0237 8.39754 55.029C14.9718 55.0844 21.464 56.4949 27.4686 59.1723C33.4732 61.8498 38.8612 65.7365 43.296 70.59C43.6356 70.9606 44.0566 71.2475 44.5258 71.4279C44.9949 71.6084 45.4996 71.6775 46 71.63C46.5005 71.6775 47.0051 71.6084 47.4743 71.4279C47.9435 71.2475 48.3645 70.9606 48.704 70.59C53.1384 65.7377 58.5254 61.8515 64.5288 59.1742C70.5322 56.4968 77.023 55.0857 83.5961 55.029C84.1734 55.0242 84.7391 54.8658 85.2349 54.5699C85.7307 54.274 86.1388 53.8514 86.4171 53.3455C89.1146 48.4705 90.8565 42.9715 91.3895 37.102C91.4404 36.5361 91.3788 35.9658 91.2084 35.4239C91.038 34.8819 90.7622 34.379 90.3967 33.944C90.0312 33.5091 89.5833 33.1507 89.0788 32.8895C88.5743 32.6283 88.0232 32.4694 87.4571 32.422C78.8028 31.7023 70.1416 33.7246 62.7008 38.2021C55.26 42.6797 49.4171 49.3854 46 57.369Z" fill="white"/>
</svg>
