<svg width="42" height="40" viewBox="0 0 42 40" fill="none" xmlns="http://www.w3.org/2000/svg">
<path d="M21.4804 0C10.1605 0 0.984131 8.95252 0.984131 19.9963C0.984131 31.0401 10.1605 39.9926 21.4804 39.9926C32.8003 39.9926 41.9766 31.0401 41.9766 19.9963C41.9766 8.95252 32.8003 0 21.4804 0ZM29.8176 16.3803C29.8262 16.5511 29.8283 16.7219 29.8283 16.8886C29.8283 22.0959 25.7696 28.0969 18.344 28.0969C16.1498 28.1005 14.0013 27.4857 12.1567 26.3264C12.4706 26.3639 12.7929 26.3785 13.1196 26.3785C15.0112 26.3785 16.7513 25.7515 18.1326 24.6934C17.2908 24.6772 16.4752 24.4053 15.7993 23.9154C15.1234 23.4256 14.6211 22.7422 14.3622 21.9605C14.9667 22.0727 15.5895 22.0492 16.1834 21.8918C15.2697 21.7116 14.448 21.2285 13.8577 20.5247C13.2674 19.8208 12.9448 18.9395 12.9445 18.03V17.9821C13.489 18.2758 14.1124 18.4549 14.7743 18.4758C13.9177 17.9195 13.3113 17.0649 13.0791 16.0869C12.847 15.1089 13.0066 14.0813 13.5253 13.2142C14.5393 14.4307 15.8039 15.4258 17.2371 16.1352C18.6704 16.8446 20.2404 17.2524 21.8454 17.3322C21.6414 16.4872 21.7292 15.6001 22.0953 14.8087C22.4613 14.0174 23.0851 13.3663 23.8696 12.9565C24.6541 12.5467 25.5554 12.4013 26.4334 12.5428C27.3114 12.6844 28.1168 13.1049 28.7245 13.7391C29.628 13.5647 30.4944 13.2414 31.2865 12.7831C30.9854 13.6957 30.355 14.4706 29.5123 14.9639C30.3126 14.8699 31.0941 14.66 31.831 14.3411C31.2897 15.1324 30.6079 15.823 29.8176 16.3803Z" fill="black"/>
</svg>
